<svg xmlns="http://www.w3.org/2000/svg" viewBox="0 0 80.44 49.07" xmlns:v="https://vecta.io/nano">
    <style>
        <![CDATA[
        .A {
            isolation: isolate
        }

        .C,
        .F {
            mix-blend-mode: lighten
        }

        .E {
            mix-blend-mode: multiply
        }
        ]]>
    </style>
    <g class="A">
        <path
            d="M38.58,47.62c-15.91,0-28.85-12.94-28.85-28.85V0h57.69V18.77c0,15.91-12.94,28.85-28.85,28.85ZM10.98,1.25V18.77c0,15.22,12.38,27.6,27.6,27.6s27.6-12.38,27.6-27.6V1.25H10.98Z"
            fill="#e6e6e6" />
        <path class="C" d="M61.76.63H15.39v4.15l46.37.69V.63z" opacity=".4" fill="#fff" />
        <g fill="#6c1300">
            <path
                d="M38.58 42.84h0c-12.79 0-23.17-10.37-23.17-23.17V4.78l46.33.69v14.2a23.17 23.17 0 0 1-23.17 23.17z" />
            <path class="E"
                d="M22.57,20.48V4.78h-7.16v14.89c0,12.27,9.54,22.31,21.61,23.11-8.51-3.82-14.45-12.36-14.45-22.3Z"
                opacity=".2" />
        </g>
        <g fill="#fff">
            <path class="C"
                d="M54.34,.63V18.77c0,13.45-9.41,24.69-21.99,27.52,2,.45,4.09,.7,6.23,.7h0c15.59,0,28.22-12.64,28.22-28.22V.63h-12.46Z"
                opacity=".4" />
            <path class="F" d="M50.28,16.42v3.14c0,4.7-1.65,9.02-4.39,12.4h8.7c2.75-3.39,4.4-7.7,4.4-12.4v-3.14h-8.7Z"
                opacity=".1" />
        </g>
        <path d="M61.41 49.07H15.74a2.77 2.77 0 0 1-2.77-2.77h51.21a2.77 2.77 0 0 1-2.77 2.77z" fill="#d9d9d9" />
        <path d="M0,40.76c1.6,3.66,5.26,6.23,9.51,6.23h58.13c4.26,0,7.91-2.56,9.51-6.23H0Z" fill="#e6e6e6" />
        <path d="M24.91,40.76H0c1.6,3.66,5.26,6.23,9.51,6.23h24.91c-4.26,0-7.91-2.56-9.51-6.23Z" fill="#a2bdcd"
            opacity=".5" />
        <path
            d="M70.23,8.58h-3.44v4.84h3.44c2.96,0,5.36,2.41,5.36,5.36s-2.41,5.36-5.36,5.36h-3.96c-.32,1.67-.8,3.29-1.4,4.84h5.36c5.63,0,10.21-4.58,10.21-10.21s-4.58-10.21-10.21-10.21Z"
            fill="#e6e6e6" />
    </g>
</svg>